<svg width="592" height="220" viewBox="0 0 592 220" fill="none" xmlns="http://www.w3.org/2000/svg">
<g clip-path="url(#clip0_9256_90)">
<path fill-rule="evenodd" clip-rule="evenodd" d="M165.94 3.10775C166.551 1.86965 166.043 0.37056 164.805 -0.240557C163.567 -0.851674 162.068 -0.3434 161.457 0.894704L138.696 47.0061C103.407 26.9825 57.7591 32.0069 27.6721 62.0939C-8.45141 98.2174 -8.45141 156.785 27.6721 192.909C63.7956 229.032 122.363 229.032 158.487 192.909C188.666 162.73 193.629 116.895 173.39 81.561L219.409 58.8468C220.647 58.2357 221.155 56.7366 220.544 55.4985C219.933 54.2604 218.434 53.7521 217.196 54.3632L174.997 75.192C176.521 71.9046 177.209 68.325 177.06 64.774L197.197 50.2015C198.315 49.3921 198.566 47.8291 197.757 46.7106C196.947 45.592 195.384 45.3415 194.266 46.1509L176.138 59.2689C175.331 56.5648 174.005 53.9826 172.16 51.6789L191.354 32.4851C192.33 31.5088 192.33 29.9259 191.354 28.9496C190.378 27.9733 188.795 27.9733 187.818 28.9496L168.625 48.1434C166.321 46.2984 163.739 44.9723 161.035 44.1653L174.153 26.0378C174.962 24.9192 174.711 23.3563 173.593 22.5469C172.474 21.7374 170.911 21.988 170.102 23.1065L155.529 43.2439C151.978 43.0948 148.399 43.7822 145.111 45.3063L165.94 3.10775ZM166.202 85.1093L164.377 86.0098C164.262 86.0666 164.145 86.1137 164.026 86.1515C155.709 89.9969 145.527 88.491 138.67 81.6339C131.812 74.7767 130.307 64.5947 134.152 56.2773C134.19 56.1586 134.237 56.0413 134.294 55.9262L135.149 54.1929C102.858 35.634 60.9215 40.1582 33.3289 67.7508C0.329639 100.75 0.329639 154.253 33.3289 187.252C66.3282 220.251 119.831 220.251 152.83 187.252C180.515 159.567 184.976 117.443 166.202 85.1093ZM142.205 53.3496C149.039 46.5154 160.12 46.5154 166.954 53.3496C173.788 60.1838 173.788 71.2642 166.954 78.0983C160.12 84.9325 149.039 84.9325 142.205 78.0983C135.371 71.2642 135.371 60.1838 142.205 53.3496Z" fill="white"/>
<path d="M365.951 29.7959H359.263L352.863 12.6119C353.076 14.2972 353.236 15.7905 353.343 17.0919C353.471 18.3719 353.535 19.8972 353.535 21.6679V29.7959H348.863V7.61987H355.391L361.951 24.8359C361.481 21.9132 361.247 19.1612 361.247 16.5799V7.61987H365.951V29.7959Z" fill="#DB240B"/>
<path d="M389.761 29.7959L388.609 25.0279H382.145L381.025 29.7959H375.585L382.273 7.61987H388.641L395.329 29.7959H389.761ZM383.041 21.2199H387.713L385.377 11.4279L383.041 21.2199Z" fill="#DB240B"/>
<path d="M412.092 7.07587C413.756 7.07587 415.196 7.31053 416.412 7.77987C417.65 8.2492 418.77 8.96387 419.772 9.92387L417.34 12.7719C415.826 11.5345 414.204 10.9159 412.476 10.9159C411.559 10.9159 410.834 11.1079 410.3 11.4919C409.767 11.8545 409.5 12.3879 409.5 13.0919C409.5 13.5825 409.618 13.9879 409.852 14.3079C410.087 14.6065 410.503 14.8945 411.1 15.1719C411.698 15.4492 412.594 15.7799 413.788 16.1639C416.05 16.8892 417.714 17.7852 418.78 18.8519C419.847 19.8972 420.38 21.3905 420.38 23.3319C420.38 24.7185 420.028 25.9452 419.324 27.0119C418.62 28.0572 417.607 28.8785 416.284 29.4759C414.962 30.0519 413.394 30.3399 411.58 30.3399C409.767 30.3399 408.156 30.0519 406.748 29.4759C405.362 28.8999 404.167 28.1319 403.164 27.1719L405.82 24.2599C406.674 24.9852 407.548 25.5292 408.444 25.8919C409.362 26.2545 410.354 26.4359 411.42 26.4359C412.508 26.4359 413.362 26.2012 413.98 25.7319C414.62 25.2412 414.94 24.5692 414.94 23.7159C414.94 23.1612 414.823 22.7025 414.588 22.3399C414.354 21.9559 413.948 21.6145 413.372 21.3159C412.796 21.0172 411.964 20.6972 410.876 20.3559C408.423 19.6092 406.674 18.6919 405.628 17.6039C404.604 16.5159 404.092 15.1399 404.092 13.4759C404.092 12.1959 404.434 11.0759 405.116 10.1159C405.799 9.13453 406.748 8.38787 407.964 7.87587C409.18 7.34253 410.556 7.07587 412.092 7.07587Z" fill="#DB240B"/>
<path d="M442.793 29.7959L441.641 25.0279H435.177L434.057 29.7959H428.617L435.305 7.61987H441.673L448.361 29.7959H442.793ZM436.073 21.2199H440.745L438.409 11.4279L436.073 21.2199Z" fill="#DB240B"/>
<path d="M243.131 43.9479V70.2439H237.545V43.9479H243.131Z" fill="white"/>
<path d="M273.111 70.2439H265.929L257.569 49.3819C257.797 51.1805 257.974 52.8779 258.101 54.4739C258.253 56.0445 258.329 57.8939 258.329 60.0219V70.2439H253.275V43.9479H260.305L268.817 64.8479C268.31 61.4532 268.057 58.3372 268.057 55.4999V43.9479H273.111V70.2439Z" fill="white"/>
<path d="M300.659 43.9479L300.051 48.3179H293.401V70.2439H287.815V48.3179H280.823V43.9479H300.659Z" fill="white"/>
<path d="M323.77 43.9479L323.162 48.0139H313.662V54.8539H321.946V58.8819H313.662V66.1399H323.846V70.2439H308.076V43.9479H323.77Z" fill="white"/>
<path d="M341.148 59.9459H338.298V70.2439H332.712V43.9479H340.92C344.442 43.9479 347.089 44.6065 348.862 45.9239C350.636 47.2159 351.522 49.1792 351.522 51.8139C351.522 53.5365 351.092 54.9552 350.23 56.0699C349.394 57.1845 348.09 58.1345 346.316 58.9199L353.118 70.2439H346.772L341.148 59.9459ZM338.298 55.9939H341.224C342.719 55.9939 343.846 55.6645 344.606 55.0059C345.366 54.3219 345.746 53.2579 345.746 51.8139C345.746 50.4712 345.341 49.4959 344.53 48.8879C343.745 48.2545 342.504 47.9379 340.806 47.9379H338.298V55.9939Z" fill="white"/>
<path d="M380.45 70.2439H373.268L364.908 49.3819C365.136 51.1805 365.314 52.8779 365.44 54.4739C365.592 56.0445 365.668 57.8939 365.668 60.0219V70.2439H360.614V43.9479H367.644L376.156 64.8479C375.65 61.4532 375.396 58.3372 375.396 55.4999V43.9479H380.45V70.2439Z" fill="white"/>
<path d="M404.465 70.2439L402.983 64.3539H394.737L393.255 70.2439H387.441L395.535 43.9479H402.337L410.393 70.2439H404.465ZM395.801 60.2119H401.919L398.841 48.0899L395.801 60.2119Z" fill="white"/>
<path d="M432.932 43.9479L432.324 48.3179H425.674V70.2439H420.088V48.3179H413.096V43.9479H432.932Z" fill="white"/>
<path d="M445.935 43.9479V70.2439H440.349V43.9479H445.935Z" fill="white"/>
<path d="M466.453 43.3399C468.859 43.3399 470.937 43.8845 472.685 44.9739C474.433 46.0379 475.775 47.5959 476.713 49.6479C477.65 51.6999 478.119 54.1825 478.119 57.0959C478.119 59.9585 477.65 62.4285 476.713 64.5059C475.775 66.5579 474.433 68.1285 472.685 69.2179C470.937 70.3072 468.859 70.8519 466.453 70.8519C464.046 70.8519 461.956 70.3199 460.183 69.2559C458.435 68.1665 457.092 66.5959 456.155 64.5439C455.217 62.4665 454.749 59.9839 454.749 57.0959C454.749 54.2585 455.217 51.8139 456.155 49.7619C457.117 47.6845 458.473 46.1012 460.221 45.0119C461.994 43.8972 464.071 43.3399 466.453 43.3399ZM466.453 47.5199C464.527 47.5199 463.071 48.2799 462.083 49.7999C461.12 51.3199 460.639 53.7519 460.639 57.0959C460.639 60.4399 461.133 62.8719 462.121 64.3919C463.109 65.9119 464.553 66.6719 466.453 66.6719C468.378 66.6719 469.822 65.9245 470.785 64.4299C471.747 62.9099 472.229 60.4652 472.229 57.0959C472.229 53.7265 471.747 51.2945 470.785 49.7999C469.822 48.2799 468.378 47.5199 466.453 47.5199Z" fill="white"/>
<path d="M506.748 70.2439H499.566L491.206 49.3819C491.434 51.1805 491.612 52.8779 491.738 54.4739C491.89 56.0445 491.966 57.8939 491.966 60.0219V70.2439H486.912V43.9479H493.942L502.454 64.8479C501.948 61.4532 501.694 58.3372 501.694 55.4999V43.9479H506.748V70.2439Z" fill="white"/>
<path d="M530.763 70.2439L529.281 64.3539H521.035L519.553 70.2439H513.739L521.833 43.9479H528.635L536.691 70.2439H530.763ZM522.099 60.2119H528.217L525.139 48.0899L522.099 60.2119Z" fill="white"/>
<path d="M549.267 43.9479V65.7599H559.679L559.071 70.2439H543.681V43.9479H549.267Z" fill="white"/>
<path d="M255.022 158.025C255.022 162.12 253.447 164.43 249.562 164.43C245.152 164.43 243.787 161.49 243.787 156.87V139.65H236.122V158.025C236.122 167.37 240.217 172.305 249.667 172.305C259.222 172.305 263.002 167.16 263.002 158.025V145.635C263.002 138.075 262.057 135.45 259.222 131.88C255.967 127.785 249.877 122.745 246.097 117.81C244.522 115.815 244.207 114.765 244.207 111.09V98.2799C244.207 94.1849 246.097 92.0849 249.772 92.0849C254.077 92.0849 255.232 95.0249 255.232 99.3299V114.03H262.687V98.2799C262.687 88.7249 259.222 83.9999 249.877 83.9999C240.637 83.9999 236.122 88.6199 236.122 98.2799V111.195C236.122 116.97 236.332 119.07 238.957 122.43C242.002 126.315 247.987 131.355 252.397 136.815C254.497 139.44 255.022 140.49 255.022 145.74V158.025Z" fill="white"/>
<path d="M292.672 114.975C292.672 120.33 290.467 122.535 285.847 122.535H280.282V93.0299H285.742C290.782 93.0299 292.672 95.4449 292.672 100.59V114.975ZM280.282 171.36V130.305H285.847C295.927 130.305 300.547 125.685 300.547 114.765V100.59C300.547 89.6699 295.822 84.9449 285.742 84.9449H272.302V171.36H280.282Z" fill="white"/>
<path d="M333.586 171.36L322.351 84.9449H313.006L301.141 171.36H308.911L310.801 156.87H323.716L325.606 171.36H333.586ZM311.746 149.52C313.741 134.715 315.631 120.435 317.416 105.21C319.096 120.435 320.986 134.715 322.771 149.52H311.746Z" fill="white"/>
<path d="M358.503 157.605C358.503 162.225 357.033 164.43 353.148 164.43C349.368 164.43 347.478 162.12 347.478 157.605V98.8049C347.478 94.2899 349.368 92.0849 353.148 92.0849C357.243 92.0849 358.503 94.1849 358.503 98.8049V114.03H365.748V98.6999C365.748 88.9349 361.548 83.9999 353.148 83.9999C344.013 83.9999 339.393 88.9349 339.393 98.9099V157.71C339.393 167.475 344.013 172.305 353.148 172.305C361.968 172.305 365.748 167.58 365.748 157.5V139.65H358.503V157.605Z" fill="white"/>
<path d="M398.466 171.36V163.485H383.031V131.355H393.531V123.375H383.031V93.0299H397.941V84.9449H375.051V171.36H398.466Z" fill="white"/>
<path d="M453.905 171.36L442.67 84.9449H433.325L421.46 171.36H429.23L431.12 156.87H444.035L445.925 171.36H453.905ZM432.065 149.52C434.06 134.715 435.95 120.435 437.735 105.21C439.415 120.435 441.305 134.715 443.09 149.52H432.065Z" fill="white"/>
<path d="M482.251 114.975C482.251 120.33 480.046 122.535 475.426 122.535H469.861V93.0299H475.321C480.361 93.0299 482.251 95.4449 482.251 100.59V114.975ZM469.861 171.36V130.305H475.426C485.506 130.305 490.126 125.685 490.126 114.765V100.59C490.126 89.6699 485.401 84.9449 475.321 84.9449H461.881V171.36H469.861Z" fill="white"/>
<path d="M518.714 114.975C518.714 120.33 516.509 122.535 511.889 122.535H506.324V93.0299H511.784C516.824 93.0299 518.714 95.4449 518.714 100.59V114.975ZM506.324 171.36V130.305H511.889C521.969 130.305 526.589 125.685 526.589 114.765V100.59C526.589 89.6699 521.864 84.9449 511.784 84.9449H498.344V171.36H506.324Z" fill="white"/>
<path d="M553.374 158.025C553.374 162.12 551.799 164.43 547.914 164.43C543.504 164.43 542.139 161.49 542.139 156.87V139.65H534.474V158.025C534.474 167.37 538.569 172.305 548.019 172.305C557.574 172.305 561.354 167.16 561.354 158.025V145.635C561.354 138.075 560.409 135.45 557.574 131.88C554.319 127.785 548.229 122.745 544.449 117.81C542.874 115.815 542.559 114.765 542.559 111.09V98.2799C542.559 94.1849 544.449 92.0849 548.124 92.0849C552.429 92.0849 553.584 95.0249 553.584 99.3299V114.03H561.039V98.2799C561.039 88.7249 557.574 83.9999 548.229 83.9999C538.989 83.9999 534.474 88.6199 534.474 98.2799V111.195C534.474 116.97 534.684 119.07 537.309 122.43C540.354 126.315 546.339 131.355 550.749 136.815C552.849 139.44 553.374 140.49 553.374 145.74V158.025Z" fill="white"/>
<path d="M248.018 184.793C250.956 184.72 253.814 185.749 256.03 187.679L253.071 191.209C252.367 190.65 251.587 190.191 250.756 189.846C249.975 189.536 249.141 189.381 248.3 189.392C247.465 189.375 246.64 189.571 245.902 189.962C245.163 190.353 244.537 190.926 244.082 191.627C243.075 193.125 242.57 195.429 242.566 198.54C242.562 201.651 243.067 203.929 244.082 205.374C244.553 206.076 245.194 206.646 245.946 207.03C246.698 207.415 247.536 207.601 248.38 207.572C249.282 207.587 250.176 207.407 251.002 207.044C251.899 206.596 252.751 206.061 253.544 205.448L256.319 209.015C255.278 210.05 254.054 210.882 252.709 211.471C251.252 212.118 249.673 212.443 248.079 212.423C245.859 212.476 243.667 211.924 241.737 210.826C239.894 209.712 238.427 208.072 237.525 206.117C236.478 203.74 235.971 201.161 236.039 198.565C235.976 196.003 236.504 193.461 237.58 191.136C238.506 189.184 239.983 187.547 241.829 186.426C243.703 185.325 245.844 184.76 248.018 184.793Z" fill="white"/>
<path d="M289.456 211.753V200.474H281.56V211.753H275.328V185.438H281.56V195.618H289.456V185.438H295.682V211.753H289.456Z" fill="white"/>
<path d="M330.686 211.753L329.323 206.092H321.654L320.322 211.753H313.868L321.801 185.438H329.359L337.292 211.753H330.686ZM322.704 201.573H328.23L325.454 189.957L322.704 201.573Z" fill="white"/>
<path d="M361.662 185.438V206.798H371.915L371.301 211.71H355.466V185.438H361.662Z" fill="white"/>
<path d="M397.341 185.438V206.798H407.588L406.974 211.71H391.115V185.438H397.341Z" fill="white"/>
<path d="M442.929 185.438L442.279 189.883H433.02V196.183H441.106V200.554H433.02V207.271H442.929V211.753H426.794V185.438H442.929Z" fill="white"/>
<path d="M483.262 211.753H475.33L467.735 191.363C467.986 193.364 468.177 195.133 468.306 196.68C468.435 198.227 468.533 200.008 468.533 202.108V211.753H463.007V185.438H470.749L478.535 205.865C477.995 202.618 477.715 199.333 477.7 196.041V185.438H483.281L483.262 211.753Z" fill="white"/>
<path d="M515.767 184.793C518.991 184.736 522.119 185.888 524.535 188.023L521.385 191.326C520.588 190.698 519.705 190.188 518.763 189.809C517.895 189.462 516.966 189.293 516.031 189.312C515.123 189.287 514.221 189.485 513.407 189.888C512.592 190.292 511.889 190.889 511.359 191.627C510.2 193.15 509.619 195.466 509.615 198.577C509.615 201.942 510.057 204.334 510.941 205.755C511.382 206.44 511.998 206.995 512.726 207.362C513.454 207.729 514.266 207.895 515.08 207.842C516.323 207.857 517.55 207.558 518.647 206.97V201.009H515.233L514.619 196.6H524.682V209.623C523.285 210.525 521.762 211.216 520.163 211.674C518.569 212.149 516.915 212.393 515.251 212.398C511.256 212.398 508.244 211.234 506.213 208.905C504.183 206.575 503.172 203.133 503.18 198.577C503.11 196.001 503.668 193.447 504.807 191.136C505.826 189.161 507.396 187.525 509.326 186.426C511.294 185.329 513.514 184.765 515.767 184.793Z" fill="white"/>
<path d="M561.19 185.438L560.576 189.883H551.281V196.183H559.373V200.554H551.281V207.271H561.19V211.753H545.055V185.438H561.19Z" fill="white"/>
<path fill-rule="evenodd" clip-rule="evenodd" d="M570.749 37.95H567.971V27.8025H572.88C573.595 27.8025 574.228 27.94 574.778 28.215C575.337 28.49 575.768 28.8796 576.07 29.3838C576.382 29.888 576.538 30.493 576.538 31.1988C576.538 31.9138 576.377 32.5234 576.056 33.0275C575.777 33.4586 575.404 33.8028 574.937 34.0601L576.813 37.9501H573.774L572.267 34.5538L570.749 34.5538V37.95ZM572.261 32.56H570.749V29.8513H572.275C572.678 29.8513 573.008 29.9613 573.265 30.1813C573.522 30.3921 573.65 30.7313 573.65 31.1988C573.65 31.648 573.522 31.9871 573.265 32.2163C573.008 32.4455 572.674 32.56 572.261 32.56Z" fill="white"/>
<path fill-rule="evenodd" clip-rule="evenodd" d="M567.724 43.1475C569.053 43.7158 570.478 44 572 44C573.522 44 574.947 43.7158 576.276 43.1475C577.605 42.5792 578.774 41.7908 579.782 40.7825C580.791 39.7742 581.579 38.6054 582.147 37.2762C582.716 35.9471 583 34.5217 583 33C583 31.4783 582.716 30.0529 582.147 28.7237C581.579 27.3946 580.791 26.2258 579.782 25.2175C578.774 24.2092 577.605 23.4208 576.276 22.8525C574.947 22.2842 573.522 22 572 22C570.478 22 569.053 22.2842 567.724 22.8525C566.395 23.4208 565.226 24.2092 564.217 25.2175C563.209 26.2258 562.421 27.3946 561.853 28.7237C561.284 30.0529 561 31.4783 561 33C561 34.5217 561.284 35.9471 561.853 37.2762C562.421 38.6054 563.209 39.7742 564.217 40.7825C565.226 41.7908 566.395 42.5792 567.724 43.1475ZM576.042 39.93C574.832 40.645 573.485 41.0025 572 41.0025C570.524 41.0025 569.181 40.645 567.971 39.93C566.761 39.2058 565.794 38.2387 565.07 37.0287C564.355 35.8187 563.998 34.4758 563.998 33C563.998 31.5242 564.355 30.1812 565.07 28.9712C565.794 27.7612 566.761 26.7988 567.971 26.0838C569.181 25.3596 570.524 24.9975 572 24.9975C573.476 24.9975 574.819 25.3596 576.029 26.0838C577.248 26.7988 578.215 27.7612 578.93 28.9712C579.654 30.1812 580.016 31.5242 580.016 33C580.016 34.4758 579.654 35.8187 578.93 37.0287C578.215 38.2387 577.252 39.2058 576.042 39.93Z" fill="white"/>
</g>
<defs>
<clipPath id="clip0_9256_90">
<rect width="592" height="220" fill="white"/>
</clipPath>
</defs>
</svg>
